<svg xmlns="http://www.w3.org/2000/svg" width="69" height="24" viewBox="0 0 69 24">
    <path fill="#111" fill-rule="evenodd" d="M4.094 23.767v-7.765l7.24 7.765h5.109l-8.037-8.721 7.48-8.024h-4.979l-6.813 7.422V0H0v23.767h4.094zM24.346 24c1.681 0 3.15-.354 4.405-1.063 1.256-.709 2.228-1.711 2.916-3.007.687-1.296 1.031-2.84 1.031-4.635 0-1.772-.344-3.317-1.031-4.635-.688-1.317-1.66-2.33-2.916-3.04-1.255-.708-2.724-1.063-4.405-1.063-1.725 0-3.216.355-4.471 1.063-1.256.71-2.222 1.723-2.9 3.04-.676 1.318-1.014 2.863-1.014 4.635 0 1.794.338 3.34 1.015 4.635.677 1.296 1.643 2.298 2.899 3.007C21.13 23.646 22.62 24 24.345 24zm0-3.19c-1.398 0-2.468-.46-3.21-1.378-.743-.92-1.114-2.298-1.114-4.137 0-1.816.377-3.184 1.13-4.103.754-.92 1.818-1.379 3.194-1.379 1.354 0 2.396.46 3.128 1.379.731.92 1.097 2.287 1.097 4.103 0 1.839-.366 3.217-1.097 4.137-.732.919-1.774 1.378-3.128 1.378zm14.936 2.957v-7.765l7.239 7.765h5.11l-8.038-8.721 7.48-8.024h-4.978l-6.814 7.422V0h-4.094v23.767h4.095zM59.533 24c1.682 0 3.15-.354 4.406-1.063 1.255-.709 2.227-1.711 2.915-3.007.688-1.296 1.032-2.84 1.032-4.635 0-1.772-.344-3.317-1.032-4.635-.688-1.317-1.66-2.33-2.915-3.04-1.256-.708-2.724-1.063-4.406-1.063-1.725 0-3.215.355-4.47 1.063-1.256.71-2.223 1.723-2.9 3.04-.677 1.318-1.015 2.863-1.015 4.635 0 1.794.338 3.34 1.015 4.635.677 1.296 1.644 2.298 2.9 3.007 1.255.709 2.745 1.063 4.47 1.063zm0-3.19c-1.397 0-2.467-.46-3.21-1.378-.742-.92-1.113-2.298-1.113-4.137 0-1.816.376-3.184 1.13-4.103.753-.92 1.817-1.379 3.193-1.379 1.354 0 2.397.46 3.128 1.379.732.92 1.098 2.287 1.098 4.103 0 1.839-.366 3.217-1.098 4.137-.731.919-1.774 1.378-3.128 1.378z"/>
</svg>
